# xmcd CD database file
#
# Track frame offsets:
#	187
#	20662
#	22132
#	55425
#	77917
#	113475
#	116507
#	142150
#	147477
#	171875
#	204267
#	229297
#
# Disc length: 3458 seconds
#
# Revision: 1
# Processed by: cddbd v1.5.1PL0 Copyright (c) Steve Scherf et al.
# Submitted via: CDex 1.51
#
DISCID=af0d800c
DTITLE=Routine - V.A.
DYEAR=1994
DGENRE=Acid Jazz
TTITLE0=James. P. Vyner - Kei Kobayashi - Oh! Yeah - INSOMNIA
TTITLE1=Riverside#1
TTITLE2=Pharoah Sanders - Leon Thomas - The Creator Has A Master Plan
TTITLE3=Umar Bin Hassan - Asian Window
TTITLE4=James. P. Vyner - Between And Beyond
TTITLE5=RiverSide#2
TTITLE6=Sadao Osada - Dance The Solution
TTITLE7=Michiharu Shimoda - Takahiro Haruno - Door
TTITLE8=Colin Hopes - Simon Anniky - From The Day
TTITLE9=Hiroaki Sakai - The Awakening Suite
TTITLE10=James. P. Vyner - Stealin' The Light
TTITLE11=Ken Itoh - Indain Summer
EXTD=YEAR: 1994
EXTT0=
EXTT1=
EXTT2=
EXTT3=
EXTT4=
EXTT5=
EXTT6=
EXTT7=
EXTT8=
EXTT9=
EXTT10=
EXTT11=
PLAYORDER=
